<svg width="60" height="60" fill="none" xmlns="http://www.w3.org/2000/svg"><path fill-rule="evenodd" clip-rule="evenodd" d="M0 30C0 13.431 13.431 0 30 0c16.569 0 30 13.431 30 30 0 16.569-13.431 30-30 30C13.431 60 0 46.569 0 30z" fill="#1769FF"/><path fill-rule="evenodd" clip-rule="evenodd" d="M34.398 23.337h8.462V20.91h-8.462v2.427zm2.005 5.298c-.54.55-.88 1.293-1.019 2.233h6.581c-.069-1.003-.411-1.76-1.016-2.281-.612-.518-1.366-.776-2.268-.776-.977 0-1.74.274-2.278.824zm5.71-3.26c1.021.45 1.86 1.162 2.522 2.135.603.857.99 1.852 1.167 2.983.103.66.145 1.618.128 2.864H35.29c.064 1.446.568 2.461 1.53 3.042.582.362 1.283.544 2.106.544.866 0 1.574-.221 2.117-.66.299-.24.562-.57.787-.994h3.899c-.104.854-.577 1.724-1.415 2.608C43.006 39.298 41.174 40 38.82 40c-1.944 0-3.66-.59-5.142-1.775-1.49-1.182-2.23-3.108-2.23-5.774 0-2.5.67-4.418 2.01-5.752 1.344-1.331 3.082-2.001 5.221-2.001 1.272 0 2.417.226 3.435.677zM17.917 30.92v5.203h4.794c.857 0 1.526-.116 2.001-.344.866-.427 1.298-1.236 1.298-2.435 0-1.017-.417-1.713-1.257-2.094-.47-.212-1.129-.323-1.974-.33h-4.862zm0-7.533v4.305h4.802c.854 0 1.551-.162 2.089-.485.533-.323.802-.894.802-1.71 0-.912-.353-1.512-1.06-1.805-.612-.202-1.39-.305-2.335-.305h-4.298zm10.723-1.308c.604.83.906 1.82.906 2.977 0 1.19-.303 2.15-.913 2.873-.342.405-.844.776-1.507 1.11 1.007.364 1.766.938 2.283 1.723.51.783.768 1.737.768 2.858 0 1.157-.293 2.194-.88 3.111a5.418 5.418 0 01-1.399 1.535c-.63.477-1.371.802-2.23.98-.858.177-1.787.262-2.79.262H13.98V20h9.542c2.408.035 4.112.728 5.117 2.079z" fill="#fff"/></svg>